{"title":"20140831 - The Big Secret - Darren Embree.mp4","uid":11085185,"size":161228756,"categoryP":"video","categoryS":"other","magnet":"?xt=urn:btih:0d1ce62ac4d7b072dce4a87f14a0914514d966dd&amp;dn=20140831+-+The+Big+Secret+-+Darren+Embree.mp4&amp;tr=udp%3A%2F%2Ftracker.openbittorrent.com%3A80&amp;tr=udp%3A%2F%2Fopen.demonii.com%3A1337&amp;tr=udp%3A%2F%2Ftracker.coppersurfer.tk%3A6969&amp;tr=udp%3A%2F%2Fexodus.desync.com%3A6969","seeders":2,"leechers":0,"uploader":"davidrpeet","files":1,"time":1411446553,"description":"The Big Secret - Darren Embree\nWeekly sermons from CrossRoads Church in Decatur, Texas\n\n\n\n\nGeneral\nFormat                                   : MPEG-4\nFormat profile                           : Base Media / Version 2\nCodec ID                                 : mp42\nFile size                                : 154 MiB\nDuration                                 : 33mn 49s\nOverall bit rate mode                    : Variable\nOverall bit rate                         : 635 Kbps\nMovie name                               : The Big Secret \nAlbum                                    : CrossRoads Church \nAlbum/Performer                          : Darren Embree\nPerformer                                : Darren Embree\nComposer                                 : http://crossroadspeople.com/\nGenre                                    : Speech\nRecorded date                            : 2014\nEncoded date                             : UTC 2014-09-01 15:51:52\nTagged date                              : UTC 2014-09-01 15:51:52\nCover                                    : Yes\nComment                                  : CrossRoads To Go Video Podcasts\n\nVideo\nID                                       : 1\nFormat                                   : AVC\nFormat/Info                              : Advanced Video Codec\nFormat profile                           : &lt;a class=&quot;__cf_email__&quot; href=&quot;/cdn-cgi/l/email-protection&quot; data-cfemail=&quot;1c5e7d6f79707572795c502e322e&quot;&gt;[email&amp;#160;protected]&lt;/a&gt;&lt;script data-cfhash='f9e31' type=&quot;text/javascript&quot;&gt;\n/* &lt;![CDATA[ */!function(){try{var t=&quot;currentScript&quot;in document?document.currentScript:function(){for(var t=document.getElementsByTagName(&quot;script&quot;),e=t.length;e--;)if(t[e].getAttribute(&quot;data-cfhash&quot;))return t[e]}();if(t&amp;&amp;t.previousSibling){var e,r,n,i,c=t.previousSibling,a=c.getAttribute(&quot;data-cfemail&quot;);if(a){for(e=&quot;&quot;,r=parseInt(a.substr(0,2),16),n=2;a.length-n;n+=2)i=parseInt(a.substr(n,2),16)^r,e+=String.fromCharCode(i);e=document.createTextNode(e),c.parentNode.replaceChild(e,c)}t.parentNode.removeChild(t);}}catch(u){}}()/* ]]&gt; */&lt;/script&gt;\nFormat settings, CABAC                   : No\nFormat settings, ReFrames                : 1 frame\nFormat settings, GOP                     : M=1, N=45\nCodec ID                                 : avc1\nCodec ID/Info                            : Advanced Video Coding\nDuration                                 : 33mn 49s\nSource duration                          : 33mn 50s\nBit rate                                 : 530 Kbps\nWidth                                    : 640 pixels\nHeight                                   : 360 pixels\nDisplay aspect ratio                     : 16:9\nFrame rate mode                          : Constant\nFrame rate                               : 15.000 fps\nColor space                              : YUV\nChroma subsampling                       : 4:2:0\nBit depth                                : 8 bits\nScan type                                : Progressive\nBits/(Pixel*Frame)                       : 0.153\nStream size                              : 128 MiB (83%)\nSource stream size                       : 128 MiB (83%)\nEncoded date                             : UTC 2014-09-01 15:51:52\nTagged date                              : UTC 2014-09-01 15:51:52\nmdhd_Duration                            : 2029928\n\nAudio\nID                                       : 2\nFormat                                   : AAC\nFormat/Info                              : Advanced Audio Codec\nFormat profile                           : LC\nCodec ID                                 : 40\nDuration                                 : 33mn 49s\nBit rate mode                            : Variable\nBit rate                                 : 103 Kbps\nChannel(s)                               : 2 channels\nChannel positions                        : Front: L R\nSampling rate                            : 48.0 KHz\nCompression mode                         : Lossy\nStream size                              : 24.9 MiB (16%)\nEncoded date                             : UTC 2014-09-01 15:51:52\nTagged date                              : UTC 2014-09-01 15:51:52\n","torrent":{"xt":"urn:btih:0d1ce62ac4d7b072dce4a87f14a0914514d966dd","amp;dn":"20140831+-+The+Big+Secret+-+Darren+Embree.mp4","amp;tr":["udp%3A%2F%2Ftracker.openbittorrent.com%3A80","udp%3A%2F%2Fopen.demonii.com%3A1337","udp%3A%2F%2Ftracker.coppersurfer.tk%3A6969","udp%3A%2F%2Fexodus.desync.com%3A6969"],"infoHash":"0d1ce62ac4d7b072dce4a87f14a0914514d966dd","infoHashBuffer":{"type":"Buffer","data":[13,28,230,42,196,215,176,114,220,228,168,127,20,160,145,69,20,217,102,221]},"announce":[],"urlList":[]}}